<?xml version="1.0" encoding="UTF-8" standalone="no"?>
<svg
   id="svg8"
   version="1.1"
   viewBox="0 0 177.98328 73.377952"
   height="277.33398"
   width="672.69275"
   xmlns="http://www.w3.org/2000/svg"
   xmlns:svg="http://www.w3.org/2000/svg"
   xmlns:rdf="http://www.w3.org/1999/02/22-rdf-syntax-ns#"
   xmlns:cc="http://creativecommons.org/ns#"
   xmlns:dc="http://purl.org/dc/elements/1.1/">
  <defs
     id="defs2">
    <linearGradient
       id="swatch92">
      <stop
         style="stop-color:#000000;stop-opacity:1;"
         offset="0"
         id="stop93" />
    </linearGradient>
  </defs>
  <metadata
     id="metadata5">
    <rdf:RDF>
      <cc:Work
         rdf:about="">
        <dc:format>image/svg+xml</dc:format>
        <dc:type
           rdf:resource="http://purl.org/dc/dcmitype/StillImage" />
      </cc:Work>
    </rdf:RDF>
  </metadata>
  <g
     id="layer1"
     transform="translate(369.69447,-245.52682)">
    <g
       id="g108"
       style="fill:#000000;fill-opacity:0.99985"
       transform="translate(-406.43764,13.308427)">
      <path
         d="m 126.62483,232.21838 c -10.08474,0 -18.73942,3.61269 -25.96431,10.83758 -7.149628,7.14963 -10.724408,15.76691 -10.724408,25.85166 0,10.16 3.57478,18.81467 10.724408,25.9643 7.14963,7.14963 15.80431,10.72441 25.96431,10.72441 10.08474,0 18.70202,-3.57478 25.85165,-10.72441 7.22489,-7.22489 10.83758,-15.87956 10.83758,-25.9643 0,-10.08475 -3.61269,-18.70203 -10.83758,-25.85166 -7.14963,-7.22489 -15.76691,-10.83758 -25.85165,-10.83758 z m 0,22.57795 c 3.83822,0 7.14968,1.39242 9.93428,4.17701 2.78459,2.78459 4.177,6.09605 4.177,9.93428 0,3.91348 -1.39241,7.26233 -4.177,10.04693 -2.70934,2.70933 -6.0208,4.06383 -9.93428,4.06383 -3.91348,0 -7.26234,-1.3545 -10.04693,-4.06383 -2.70934,-2.7846 -4.06384,-6.13345 -4.06384,-10.04693 0,-3.91349 1.3545,-7.22495 4.06384,-9.93428 2.78459,-2.78459 6.13345,-4.17701 10.04693,-4.17701 z"
         style="font-size:112.889px;line-height:125%;font-family:'Distant Galaxy';-inkscape-font-specification:'Distant Galaxy';letter-spacing:0px;word-spacing:0px;fill:#000000;fill-opacity:0.99985;stroke-width:0.264583px"
         id="path97" />
      <path
         d="m 179.21388,232.21838 c -10.08473,0 -18.73943,3.6127 -25.96431,10.83758 -7.14962,7.14963 -10.72441,15.76692 -10.72441,25.85166 0,10.15999 3.57479,18.81468 10.72441,25.9643 7.14962,7.14962 15.80432,10.72441 25.96431,10.72441 10.08473,0 18.70203,-3.57479 25.85165,-10.72441 4.85224,-4.85224 8.06737,-10.35247 9.66091,-16.4946 l -21.74906,-6.2854 c -0.56534,2.57582 -1.83333,4.86672 -3.82923,6.86263 -2.70933,2.70932 -6.0208,4.06383 -9.93427,4.06383 -3.91348,0 -7.26235,-1.35451 -10.04694,-4.06383 -2.70933,-2.7846 -4.06383,-6.13346 -4.06383,-10.04693 0,-3.91349 1.3545,-7.22495 4.06383,-9.93428 2.78459,-2.78459 6.13346,-4.17701 10.04694,-4.17701 3.83821,0 7.14968,1.39242 9.93427,4.17701 1.98225,1.98225 3.24512,4.23688 3.81631,6.75307 l 21.75836,-6.2885 c -1.59464,-6.12067 -4.80827,-11.58343 -9.65729,-16.38195 -7.14962,-7.22488 -15.76692,-10.83758 -25.85165,-10.83758 z"
         style="font-size:112.889px;line-height:125%;font-family:'Distant Galaxy';-inkscape-font-specification:'Distant Galaxy';letter-spacing:0px;word-spacing:0px;fill:#000000;fill-opacity:0.99985;stroke-width:0.264583px"
         id="path102" />
      <path
         d="m 36.743158,232.21838 v 22.57795 h 22.57795 v 50.8 h 22.577434 v -50.8 h 12.27005 c 1.78732,-4.2754 4.45395,-8.18964 8.005188,-11.74088 7.22489,-7.2249 15.87958,-10.83707 25.96431,-10.83707 z"
         style="font-size:112.889px;line-height:125%;font-family:'Distant Galaxy';-inkscape-font-specification:'Distant Galaxy';letter-spacing:0px;word-spacing:0px;fill:#000000;fill-opacity:0.99985;stroke:none;stroke-width:0.264583px;stroke-opacity:1"
         id="path108" />
    </g>
  </g>
</svg>
