<?xml version="1.0" encoding="UTF-8" standalone="no"?>
<svg
   inkscape:version="1.3.2 (091e20e, 2023-11-25)"
   id="svg8"
   version="1.1"
   viewBox="0 0 264.8641 141.67719"
   height="535.47284"
   width="1001.0612"
   sodipodi:docname="logo.svg"
   xmlns:inkscape="http://www.inkscape.org/namespaces/inkscape"
   xmlns:sodipodi="http://sodipodi.sourceforge.net/DTD/sodipodi-0.dtd"
   xmlns="http://www.w3.org/2000/svg"
   xmlns:svg="http://www.w3.org/2000/svg"
   xmlns:rdf="http://www.w3.org/1999/02/22-rdf-syntax-ns#"
   xmlns:cc="http://creativecommons.org/ns#"
   xmlns:dc="http://purl.org/dc/elements/1.1/">
  <defs
     id="defs2">
    <linearGradient
       id="swatch92"
       inkscape:swatch="solid">
      <stop
         style="stop-color:#000000;stop-opacity:1;"
         offset="0"
         id="stop93" />
    </linearGradient>
    <filter
       style="color-interpolation-filters:sRGB"
       inkscape:label="Drop Shadow"
       id="filter11"
       x="-0.040066675"
       y="-0.09812212"
       width="1.1023926"
       height="1.2507565">
      <feFlood
         result="flood"
         in="SourceGraphic"
         flood-opacity="0.321569"
         flood-color="rgb(0,0,0)"
         id="feFlood10" />
      <feGaussianBlur
         result="blur"
         in="SourceGraphic"
         stdDeviation="3.000000"
         id="feGaussianBlur10" />
      <feOffset
         result="offset"
         in="blur"
         dx="4.000000"
         dy="4.000000"
         id="feOffset10" />
      <feComposite
         result="comp1"
         operator="in"
         in="flood"
         in2="offset"
         id="feComposite10" />
      <feComposite
         result="comp2"
         operator="over"
         in="SourceGraphic"
         in2="comp1"
         id="feComposite11" />
    </filter>
  </defs>
  <sodipodi:namedview
     showborder="false"
     units="px"
     showgrid="false"
     inkscape:document-rotation="0"
     inkscape:current-layer="g10"
     inkscape:document-units="px"
     inkscape:cy="1334.5707"
     inkscape:cx="-2032.2936"
     inkscape:zoom="0.9609832"
     inkscape:pageshadow="2"
     inkscape:pageopacity="1"
     borderopacity="1.0"
     bordercolor="#666666"
     pagecolor="#acacac"
     id="base"
     inkscape:showpageshadow="0"
     inkscape:pagecheckerboard="1"
     inkscape:deskcolor="#d1d1d1"
     showguides="true"
     inkscape:window-width="1920"
     inkscape:window-height="1011"
     inkscape:window-x="0"
     inkscape:window-y="0"
     inkscape:window-maximized="1">
    <sodipodi:guide
       position="1038.4022,357.09377"
       orientation="0,-1"
       id="guide28"
       inkscape:locked="false" />
    <sodipodi:guide
       position="1064.7288,430.47175"
       orientation="0,-1"
       id="guide29"
       inkscape:locked="false" />
  </sodipodi:namedview>
  <metadata
     id="metadata5">
    <rdf:RDF>
      <cc:Work
         rdf:about="">
        <dc:format>image/svg+xml</dc:format>
        <dc:type
           rdf:resource="http://purl.org/dc/dcmitype/StillImage" />
      </cc:Work>
    </rdf:RDF>
  </metadata>
  <g
     id="layer1"
     inkscape:groupmode="layer"
     inkscape:label="Layer 1"
     transform="translate(887.40042,-274.48083)">
    <g
       id="g10"
       inkscape:export-filename="../static/images/logo.svg"
       inkscape:export-xdpi="73.067535"
       inkscape:export-ydpi="73.067535">
      <rect
         style="fill:#bfac88;fill-opacity:1;fill-rule:evenodd;stroke:none;stroke-width:0.103936;stroke-linecap:square;stroke-linejoin:round;stroke-miterlimit:0;stroke-opacity:1;filter:url(#filter11)"
         id="rect3"
         width="240.263"
         height="113.27318"
         x="-877.77386"
         y="285.59543"
         ry="6.6719885" />
      <g
         id="g16"
         transform="translate(-209.27757,-33.246471)"
         style="filter:url(#filter11)">
        <path
           d="m -637.85376,342.74999 v 22.57795 h 22.57795 v 50.8 h 22.57743 v -50.8 h 12.27005 c 1.78732,-4.2754 4.45395,-8.18964 8.00519,-11.74088 7.22489,-7.2249 15.87958,-10.83707 25.96431,-10.83707 z"
           style="font-size:112.889px;line-height:125%;font-family:'Distant Galaxy';-inkscape-font-specification:'Distant Galaxy';letter-spacing:0px;word-spacing:0px;fill:#000000;fill-opacity:0.99985;stroke:none;stroke-width:0.264583px;stroke-opacity:1"
           id="path5" />
        <path
           d="m -546.25491,342.74999 c -10.08474,0 -18.73942,3.61269 -25.96431,10.83758 -7.14963,7.14963 -10.72441,15.76691 -10.72441,25.85166 0,10.16 3.57478,18.81467 10.72441,25.9643 7.14963,7.14963 15.80431,10.72441 25.96431,10.72441 10.08474,0 18.70202,-3.57478 25.85165,-10.72441 7.22489,-7.22489 10.83758,-15.87956 10.83758,-25.9643 0,-10.08475 -3.61269,-18.70203 -10.83758,-25.85166 -7.14963,-7.22489 -15.76691,-10.83758 -25.85165,-10.83758 z m 0,22.57795 c 3.83822,0 7.14968,1.39242 9.93428,4.17701 2.78459,2.78459 4.177,6.09605 4.177,9.93428 0,3.91348 -1.39241,7.26233 -4.177,10.04693 -2.70934,2.70933 -6.0208,4.06383 -9.93428,4.06383 -3.91348,0 -7.26234,-1.3545 -10.04693,-4.06383 -2.70934,-2.7846 -4.06384,-6.13345 -4.06384,-10.04693 0,-3.91349 1.3545,-7.22495 4.06384,-9.93428 2.78459,-2.78459 6.13345,-4.17701 10.04693,-4.17701 z"
           style="font-size:112.889px;line-height:125%;font-family:'Distant Galaxy';-inkscape-font-specification:'Distant Galaxy';letter-spacing:0px;word-spacing:0px;fill:#ffffff;fill-opacity:0.99985;stroke-width:0.264583px"
           id="path6" />
        <path
           d="m -493.66586,342.74999 c -10.08473,0 -18.73943,3.6127 -25.96431,10.83758 -7.14962,7.14963 -10.72441,15.76692 -10.72441,25.85166 0,10.15999 3.57479,18.81468 10.72441,25.9643 7.14962,7.14962 15.80432,10.72441 25.96431,10.72441 10.08473,0 18.70203,-3.57479 25.85165,-10.72441 4.85224,-4.85224 8.06737,-10.35247 9.66091,-16.4946 l -21.74906,-6.2854 c -0.56534,2.57582 -1.83333,4.86672 -3.82923,6.86263 -2.70933,2.70932 -6.0208,4.06383 -9.93427,4.06383 -3.91348,0 -7.26235,-1.35451 -10.04694,-4.06383 -2.70933,-2.7846 -4.06383,-6.13346 -4.06383,-10.04693 0,-3.91349 1.3545,-7.22495 4.06383,-9.93428 2.78459,-2.78459 6.13346,-4.17701 10.04694,-4.17701 3.83821,0 7.14968,1.39242 9.93427,4.17701 1.98225,1.98225 3.24512,4.23688 3.81631,6.75307 l 21.75836,-6.2885 c -1.59464,-6.12067 -4.80827,-11.58343 -9.65729,-16.38195 -7.14962,-7.22488 -15.76692,-10.83758 -25.85165,-10.83758 z"
           style="font-size:112.889px;line-height:125%;font-family:'Distant Galaxy';-inkscape-font-specification:'Distant Galaxy';letter-spacing:0px;word-spacing:0px;fill:#ffffff;fill-opacity:0.99985;stroke-width:0.264583px"
           id="path7" />
      </g>
      <text
         xml:space="preserve"
         style="font-size:12.7px;line-height:125%;font-family:'Distant Galaxy';-inkscape-font-specification:'Distant Galaxy';letter-spacing:0px;word-spacing:0px;fill:#000000;fill-opacity:0.99985;stroke:#000000;stroke-width:0.264583px;stroke-linecap:butt;stroke-linejoin:miter;stroke-opacity:1"
         x="-622.66296"
         y="290.50406"
         id="text15"><tspan
           sodipodi:role="line"
           id="tspan15"
           style="fill:#000000;fill-opacity:0.99985;stroke-width:0.264583px"
           x="-622.66296"
           y="290.50406" /></text>
      <text
         xml:space="preserve"
         style="font-size:12.7px;line-height:125%;font-family:'Distant Galaxy';-inkscape-font-specification:'Distant Galaxy';letter-spacing:0px;word-spacing:0px;fill:#000000;fill-opacity:0.99985;stroke:#000000;stroke-width:0.264583px;stroke-linecap:butt;stroke-linejoin:miter;stroke-opacity:1"
         x="-620.25275"
         y="283.54135"
         id="text16"><tspan
           sodipodi:role="line"
           id="tspan16"
           style="fill:#000000;fill-opacity:0.99985;stroke-width:0.264583px"
           x="-620.25275"
           y="283.54135" /></text>
    </g>
  </g>
</svg>
